<svg width="353" height="339" viewBox="0 0 353 339" fill="none" xmlns="http://www.w3.org/2000/svg">
<path d="M312.631 190.3C318.405 217.559 279.16 233.916 249.137 233.916C219.113 233.916 159.013 233.331 110.61 230.645C51.7373 227.373 69.0491 184.844 93.2985 172.846C117.537 160.857 176.41 155.401 235.283 153.226C294.167 151.042 306.868 163.041 312.631 190.3Z" fill="#9C7EBA"/>
<path d="M276.759 252.841C356.007 277.514 373.543 314.99 300.955 325.901C228.367 336.802 72.219 334.481 37.3286 328.075C-16.1651 318.261 2.16063 261.504 66.6156 247.386C121.379 235.396 206.711 231.028 276.759 252.841Z" fill="#9C7EBA"/>
<path d="M195.248 70.8734C262.788 71.5862 288.222 145.02 213.083 149.388C137.944 153.747 43.7004 148.694 39.8794 119.251C36.0584 89.8076 92.0923 69.7859 195.248 70.8734Z" fill="#9C7EBA"/>
<path d="M185.066 5.21584C272.938 4.11927 250.012 64.0929 185.066 65.1803C120.109 66.2769 122.607 5.98345 185.066 5.21584Z" fill="#9C7EBA"/>
<path d="M344.939 306.957C340.061 315.328 325.78 322.172 300.955 325.901C228.367 336.802 72.219 334.481 37.3286 328.075C16.5587 324.265 6.61135 313.381 5.99231 300.661C31.4904 306.756 75.976 315.94 109.724 315.145C159.909 313.948 189.186 299.674 224.727 305.321C253.748 309.927 290.655 315.94 344.939 306.957Z" fill="#7C52B6"/>
<path d="M239.019 213.364C267.356 216.362 293.057 210.577 311.628 204.08C304.413 222.978 273.696 233.916 249.137 233.916C219.124 233.916 159.013 233.331 110.61 230.645C87.1508 229.338 75.7946 221.808 72.1443 212.451C81.0884 213.273 89.9685 213.904 98.2295 214.178C140.047 215.585 182.558 207.397 239.019 213.364Z" fill="#7C52B6"/>
<path d="M241.271 24.3877C248.945 41.677 224.909 64.5132 185.066 65.1803C165.641 65.5093 152.257 60.3462 144.7 52.9352C184.618 52.1402 217.832 43.9159 241.271 24.3877Z" fill="#7C52B6"/>
<path d="M258.839 118.447C258.091 133.899 244.238 147.579 213.083 149.388C140.207 153.619 49.3465 148.986 40.4772 121.837C54.6831 125.063 79.9464 128.983 107.291 124.642C149.108 118.017 162.556 121.398 189.986 126.57C202.901 129.01 231.836 124.204 258.839 118.447Z" fill="#7C52B6"/>
<path d="M278.573 248.546C264.559 244.187 250.001 240.879 235.251 238.439C241.698 238.476 246.511 238.476 249.137 238.476C268.594 238.476 294.647 231.887 309.013 217.157C316.932 209.042 319.996 199.465 317.882 189.477C315.257 177.095 310.881 164.567 296.739 156.863C284.977 150.457 267.388 147.844 240.097 148.502C257.985 141.246 264.581 128.17 264.196 116.08C263.503 94.7422 241.73 71.6593 206.839 67.1085C215.687 65.0158 223.713 61.7352 230.384 57.4038C241.783 50.0019 248.208 40.2515 248.016 30.6656C247.717 15.7795 231.014 0.0710742 184.981 0.646777C153.185 1.03972 140.516 15.3044 136.546 21.4269C130.291 31.0585 130.42 42.2984 136.887 51.5005C141.861 58.5734 150.047 63.7731 160.496 66.7886C102.627 69.1097 61.8874 79.2439 44.138 96.0124C36.6668 103.076 33.4542 111.063 34.5749 119.762C38.065 146.638 98.176 153.811 148.735 155.054C121.689 158.526 102.243 163.15 90.6302 168.898C75.3249 176.465 61.9088 195.417 66.3061 211.555C71.4185 230.288 96.0414 234.419 110.269 235.205C111.56 235.278 112.873 235.351 114.186 235.415C96.0521 237.215 79.434 239.874 65.3028 242.963C46.0165 247.185 29.5158 255.263 17.5833 266.329C6.39786 276.701 0.378222 288.69 0.634377 300.085C1.00794 316.397 14.3066 328.532 36.2079 332.553C53.7865 335.779 102.765 338.054 156.483 338.054C208.632 338.054 265.253 335.907 301.883 330.406C341.587 324.438 351.118 311.563 352.111 301.812C354 283.381 326.517 263.469 278.584 248.546H278.573ZM146.024 46.7852C141.552 40.416 141.498 32.5937 145.864 25.8589C148.937 21.1345 158.906 10.1048 185.13 9.77578C185.93 9.76664 186.71 9.7575 187.478 9.7575C223.873 9.7575 237.129 20.5496 237.343 30.8118C237.684 47.8453 209.998 60.1909 184.949 60.6112C166.623 60.9311 152.417 55.8777 146.024 46.7852ZM45.1733 118.748C44.3835 112.68 46.6249 107.243 52.0361 102.144C60.6707 93.9837 90.929 75.4059 187.019 75.4059C189.687 75.4059 192.409 75.4242 195.173 75.4516C222.721 75.744 252.734 92.2475 253.513 116.345C254.036 132.665 238.784 143.321 212.709 144.828C131.743 149.525 48.1938 142.078 45.1733 118.748ZM76.691 209.472C74.0548 199.831 81.3232 184.049 95.956 176.803C115.755 167.007 164.008 160.436 235.507 157.786C239.862 157.622 243.928 157.549 247.749 157.549C296.515 157.549 303.015 170.507 307.38 191.113C308.938 198.451 306.729 205.25 300.816 211.299C290.452 221.918 269.202 229.338 249.137 229.338C235.859 229.338 166.826 229.183 110.952 226.076C97.1835 225.308 80.0638 221.808 76.691 209.462V209.472ZM341.47 301.008C340.531 310.146 325.428 317.576 300.026 321.395C226.67 332.416 72.4538 329.848 38.4386 323.607C21.2228 320.445 11.585 312.029 11.3075 299.893C10.9126 282.686 30.6259 259.978 67.9391 251.809C93.672 246.17 127.826 242.012 164.36 242.012C200.894 242.012 239.712 246.161 274.934 257.127C322.493 271.931 342.623 289.832 341.481 300.999L341.47 301.008Z" fill="#58595B"/>
</svg>
