<svg width="1953" height="472" viewBox="0 0 1953 472" fill="none" xmlns="http://www.w3.org/2000/svg">
<path d="M418.631 267.3C424.405 294.559 385.16 310.916 355.137 310.916C325.113 310.916 265.013 310.331 216.61 307.644C157.737 304.373 175.049 261.844 199.298 249.846C223.537 237.856 282.41 232.401 341.283 230.226C400.167 228.042 412.868 240.04 418.631 267.3Z" fill="#9C7EBA"/>
<path d="M382.759 329.841C462.007 354.514 479.543 391.99 406.955 402.9C334.367 413.802 178.219 411.481 143.329 405.075C89.8349 395.261 108.161 338.504 172.616 324.386C227.379 312.396 312.711 308.028 382.759 329.841Z" fill="#9C7EBA"/>
<path d="M301.248 147.873C368.788 148.586 394.222 222.02 319.083 226.388C243.944 230.747 149.7 225.694 145.879 196.251C142.058 166.807 198.092 146.786 301.248 147.873Z" fill="#9C7EBA"/>
<path d="M291.066 82.2158C378.938 81.1192 356.012 141.093 291.066 142.18C226.109 143.277 228.607 82.9834 291.066 82.2158Z" fill="#9C7EBA"/>
<path d="M450.939 383.957C446.061 392.328 431.78 399.172 406.955 402.901C334.367 413.802 178.219 411.481 143.329 405.076C122.559 401.265 112.611 390.381 111.992 377.661C137.49 383.756 181.976 392.94 215.724 392.145C265.909 390.948 295.186 376.674 330.727 382.322C359.748 386.927 396.655 392.94 450.939 383.957Z" fill="#7C52B6"/>
<path d="M345.019 290.364C373.356 293.362 399.057 287.577 417.628 281.08C410.413 299.978 379.696 310.916 355.137 310.916C325.124 310.916 265.013 310.331 216.61 307.645C193.151 306.338 181.795 298.808 178.144 289.451C187.088 290.273 195.968 290.904 204.229 291.178C246.047 292.585 288.558 284.397 345.019 290.364Z" fill="#7C52B6"/>
<path d="M347.271 101.388C354.945 118.677 330.909 141.513 291.066 142.18C271.641 142.509 258.257 137.346 250.7 129.935C290.618 129.14 323.832 120.916 347.271 101.388Z" fill="#7C52B6"/>
<path d="M364.839 195.447C364.091 210.899 350.238 224.579 319.083 226.388C246.207 230.619 155.347 225.986 146.477 198.837C160.683 202.063 185.946 205.983 213.291 201.642C255.108 195.017 268.556 198.398 295.986 203.57C308.901 206.01 337.836 201.204 364.839 195.447Z" fill="#7C52B6"/>
<path d="M384.573 325.546C370.559 321.187 356.001 317.879 341.251 315.439C347.698 315.476 352.511 315.476 355.137 315.476C374.594 315.476 400.647 308.887 415.013 294.157C422.932 286.042 425.996 276.465 423.882 266.477C421.257 254.095 416.881 241.567 402.739 233.863C390.977 227.457 373.388 224.844 346.097 225.502C363.985 218.246 370.581 205.169 370.196 193.08C369.503 171.742 347.73 148.659 312.839 144.108C321.687 142.016 329.713 138.735 336.384 134.404C347.783 127.002 354.208 117.251 354.016 107.665C353.717 92.7795 337.014 77.071 290.981 77.6467C259.185 78.0396 246.516 92.3043 242.546 98.4268C236.291 108.058 236.42 119.298 242.887 128.5C247.861 135.573 256.047 140.773 266.496 143.789C208.627 146.11 167.887 156.244 150.138 173.012C142.667 180.076 139.454 188.063 140.575 196.762C144.065 223.638 204.176 230.811 254.735 232.054C227.689 235.526 208.243 240.15 196.63 245.898C181.325 253.465 167.909 272.417 172.306 288.555C177.419 307.288 202.041 311.419 216.269 312.204C217.56 312.278 218.873 312.351 220.186 312.415C202.052 314.215 185.434 316.874 171.303 319.963C152.016 324.185 135.516 332.263 123.583 343.329C112.398 353.701 106.378 365.69 106.634 377.085C107.008 393.397 120.307 405.532 142.208 409.553C159.787 412.779 208.765 415.054 262.483 415.054C314.632 415.054 371.253 412.907 407.883 407.406C447.587 401.438 457.118 388.563 458.111 378.812C460 360.381 432.517 340.469 384.584 325.546H384.573ZM252.024 123.785C247.552 117.416 247.498 109.594 251.864 102.859C254.937 98.1344 264.906 87.1047 291.13 86.7757C291.93 86.7666 292.71 86.7574 293.478 86.7574C329.873 86.7574 343.129 97.5496 343.343 107.812C343.684 124.845 315.998 137.191 290.949 137.611C272.623 137.931 258.417 132.878 252.024 123.785ZM151.173 195.748C150.384 189.68 152.625 184.243 158.036 179.144C166.671 170.984 196.929 152.406 293.019 152.406C295.687 152.406 298.409 152.424 301.173 152.452C328.721 152.744 358.734 169.247 359.513 193.345C360.036 209.665 344.784 220.32 318.709 221.828C237.743 226.525 154.194 219.078 151.173 195.748ZM182.691 286.471C180.055 276.831 187.323 261.049 201.956 253.803C221.755 244.007 270.008 237.436 341.507 234.786C345.862 234.622 349.928 234.549 353.749 234.549C402.515 234.549 409.015 247.506 413.38 268.113C414.938 275.451 412.729 282.25 406.816 288.299C396.452 298.918 375.202 306.338 355.137 306.338C341.859 306.338 272.826 306.182 216.952 303.075C203.183 302.308 186.064 298.808 182.691 286.462V286.471ZM447.47 378.008C446.531 387.146 431.428 394.576 406.026 398.395C332.67 409.416 178.454 406.848 144.439 400.607C127.223 397.445 117.585 389.029 117.308 376.893C116.913 359.686 136.626 336.978 173.939 328.808C199.672 323.17 233.826 319.012 270.36 319.012C306.894 319.012 345.712 323.161 380.934 334.127C428.493 348.931 448.623 366.832 447.481 377.999L447.47 378.008Z" fill="#F3F3F3"/>
<path d="M700.31 134.859C717.11 134.859 730.843 138.059 741.51 144.459C752.176 150.859 760.176 159.259 765.51 169.659C770.843 180.059 773.643 191.926 773.91 205.259C774.176 218.326 772.31 231.792 768.31 245.659C764.31 259.526 758.31 273.126 750.31 286.459C742.31 299.526 732.71 311.259 721.51 321.659C710.576 332.059 698.043 340.459 683.91 346.859C670.043 353.259 654.976 356.459 638.71 356.459C630.443 356.992 623.11 354.059 616.71 347.659C613.776 352.726 609.376 359.792 603.51 368.859C597.643 377.659 590.443 386.459 581.91 395.259C573.376 403.792 563.643 411.259 552.71 417.659C541.776 424.059 529.776 427.259 516.71 427.259C500.443 427.259 488.043 423.259 479.51 415.259C471.243 407.259 465.91 397.259 463.51 385.259C461.376 373.259 461.91 360.326 465.11 346.459C468.31 332.592 473.376 319.659 480.31 307.659C487.243 295.659 495.776 285.659 505.91 277.659C516.043 269.659 526.976 265.659 538.71 265.659C549.11 265.659 557.243 268.192 563.11 273.259C569.243 278.326 573.243 284.726 575.11 292.459C577.243 299.926 577.643 308.059 576.31 316.859C574.976 325.659 572.043 333.926 567.51 341.659C563.243 349.126 557.643 355.392 550.71 360.459C543.776 365.526 535.776 368.059 526.71 368.059C520.31 368.059 515.376 367.126 511.91 365.259C508.443 363.392 505.776 361.392 503.91 359.259C502.043 356.859 500.843 354.059 500.31 350.859C511.51 350.859 521.376 348.992 529.91 345.259C538.443 341.259 545.51 336.326 551.11 330.459C556.71 324.592 560.843 318.326 563.51 311.659C566.176 304.726 567.11 298.326 566.31 292.459C565.776 286.592 563.51 281.792 559.51 278.059C555.776 274.059 550.176 272.059 542.71 272.059C533.91 272.059 525.51 275.392 517.51 282.059C509.51 288.726 502.576 297.126 496.71 307.259C490.843 317.126 486.443 327.926 483.51 339.659C480.576 351.392 479.643 362.326 480.71 372.459C481.776 382.326 485.243 390.592 491.11 397.259C496.976 403.926 505.776 407.259 517.51 407.259C533.776 407.259 548.71 401.392 562.31 389.659C576.176 377.926 589.243 362.326 601.51 342.859L651.91 262.059C660.71 248.192 668.31 236.326 674.71 226.459C681.376 216.592 687.243 208.459 692.31 202.059C697.643 195.659 702.443 190.992 706.71 188.059C711.243 185.126 715.51 183.659 719.51 183.659C722.443 183.126 724.976 183.926 727.11 186.059C729.51 187.926 730.71 190.459 730.71 193.659C725.376 193.659 719.51 196.192 713.11 201.259C706.71 206.059 701.11 212.326 696.31 220.059L627.11 330.859C640.976 332.192 654.176 330.592 666.71 326.059C679.243 321.526 690.71 314.992 701.11 306.459C711.776 297.926 720.976 288.059 728.71 276.859C736.71 265.392 742.976 253.659 747.51 241.659C752.31 229.659 755.243 217.926 756.31 206.459C757.376 194.726 756.31 184.326 753.11 175.259C749.91 165.926 744.31 158.459 736.31 152.859C728.31 147.259 717.643 144.459 704.31 144.459C689.376 144.459 675.91 146.859 663.91 151.659C651.91 156.192 641.376 162.326 632.31 170.059C623.51 177.526 616.176 186.059 610.31 195.659C604.443 205.259 600.176 214.859 597.51 224.459C594.843 234.059 593.643 243.259 593.91 252.059C594.176 260.859 596.176 268.326 599.91 274.459C594.843 273.126 590.443 270.992 586.71 268.059C583.243 265.392 580.043 261.926 577.11 257.659C574.443 253.126 573.11 247.259 573.11 240.059C573.11 226.192 576.71 212.992 583.91 200.459C591.376 187.659 601.11 176.459 613.11 166.859C625.11 156.992 638.71 149.259 653.91 143.659C669.11 137.792 684.576 134.859 700.31 134.859ZM833.638 336.459C826.438 347.659 819.505 357.259 812.838 365.259C806.172 372.992 799.505 379.259 792.838 384.059C786.172 388.859 779.372 392.326 772.438 394.459C765.505 396.592 758.172 397.659 750.438 397.659C738.972 397.659 730.838 395.259 726.038 390.459C721.238 385.392 718.972 379.126 719.238 371.659C719.238 364.192 721.238 356.192 725.238 347.659C729.505 339.126 734.705 331.126 740.838 323.659C746.972 316.192 753.772 310.059 761.238 305.259C768.705 300.192 775.772 297.659 782.438 297.659C788.838 297.659 793.238 299.392 795.638 302.859C798.305 306.059 799.372 310.059 798.838 314.859C798.305 319.392 796.438 324.192 793.238 329.259C790.038 334.326 786.038 338.592 781.238 342.059C776.438 345.526 770.838 347.792 764.438 348.859C758.305 349.926 751.905 348.726 745.238 345.259C742.038 350.859 739.505 356.459 737.638 362.059C735.772 367.392 734.972 372.326 735.238 376.859C735.505 381.126 736.838 384.726 739.238 387.659C741.905 390.326 746.038 391.659 751.638 391.659C765.505 391.659 778.572 386.859 790.838 377.259C803.372 367.392 815.238 353.792 826.438 336.459H833.638ZM789.238 308.859C782.305 308.859 774.972 312.059 767.238 318.459C759.772 324.859 753.372 332.326 748.038 340.859C753.372 343.259 758.305 344.192 762.838 343.659C767.638 342.859 771.772 341.259 775.238 338.859C778.972 336.459 782.172 333.526 784.838 330.059C787.505 326.592 789.505 323.392 790.838 320.459C792.172 317.259 792.705 314.592 792.438 312.459C792.172 310.059 791.105 308.859 789.238 308.859ZM936.324 336.459C934.457 339.392 932.19 342.992 929.524 347.259C926.857 351.259 923.657 355.126 919.924 358.859C916.19 362.326 911.924 365.392 907.124 368.059C902.59 370.459 897.257 371.659 891.124 371.659C889.79 371.659 888.59 371.659 887.524 371.659C886.457 371.392 885.257 371.126 883.924 370.859C876.99 378.592 868.724 384.992 859.124 390.059C849.524 395.126 838.99 397.659 827.524 397.659C822.457 397.659 818.324 396.459 815.124 394.059C811.657 391.392 809.257 387.926 807.924 383.659C806.59 379.392 806.457 374.726 807.524 369.659C808.324 364.326 810.457 358.859 813.924 353.259C815.79 350.326 818.324 346.326 821.524 341.259C824.99 335.926 828.857 330.059 833.124 323.659C837.39 316.992 841.924 309.926 846.724 302.459C851.524 294.726 856.324 287.126 861.124 279.659C872.324 262.326 884.457 243.392 897.524 222.859H916.324L863.924 304.459C871.39 299.926 879.524 297.659 888.324 297.659C895.257 297.659 900.19 299.792 903.124 304.059C906.324 308.326 907.79 313.792 907.524 320.459C907.257 327.126 905.524 334.459 902.324 342.459C899.124 350.459 894.59 358.059 888.724 365.259C889.257 365.792 890.324 366.059 891.924 366.059C898.324 366.059 904.457 363.792 910.324 359.259C916.19 354.459 922.457 346.859 929.124 336.459H936.324ZM885.124 336.459C885.924 336.459 886.457 336.592 886.724 336.859C891.257 328.326 893.524 321.126 893.524 315.259C893.79 309.126 890.59 306.059 883.924 306.059C879.39 306.059 874.59 307.259 869.524 309.659C864.724 311.792 860.19 314.326 855.924 317.259L831.124 356.059C828.19 360.592 825.79 364.992 823.924 369.259C822.057 373.526 820.724 377.392 819.924 380.859C819.39 384.059 819.39 386.726 819.924 388.859C820.457 390.726 821.657 391.659 823.524 391.659C831.257 391.659 839.524 388.326 848.324 381.659C857.124 374.992 865.124 367.259 872.324 358.459C871.524 353.392 872.457 348.459 875.124 343.659C878.057 338.859 881.39 336.459 885.124 336.459ZM1039.16 336.459C1037.29 339.392 1035.02 342.992 1032.36 347.259C1029.69 351.259 1026.49 355.126 1022.76 358.859C1019.02 362.326 1014.76 365.392 1009.96 368.059C1005.42 370.459 1000.09 371.659 993.956 371.659C992.622 371.659 991.422 371.659 990.356 371.659C989.289 371.392 988.089 371.126 986.756 370.859C979.822 378.592 971.556 384.992 961.956 390.059C952.356 395.126 941.822 397.659 930.356 397.659C925.289 397.659 921.156 396.459 917.956 394.059C914.489 391.392 912.089 387.926 910.756 383.659C909.422 379.392 909.289 374.726 910.356 369.659C911.156 364.326 913.289 358.859 916.756 353.259C918.622 350.326 921.156 346.326 924.356 341.259C927.822 335.926 931.689 330.059 935.956 323.659C940.222 316.992 944.756 309.926 949.556 302.459C954.356 294.726 959.156 287.126 963.956 279.659C975.156 262.326 987.289 243.392 1000.36 222.859H1019.16L966.756 304.459C974.222 299.926 982.356 297.659 991.156 297.659C998.089 297.659 1003.02 299.792 1005.96 304.059C1009.16 308.326 1010.62 313.792 1010.36 320.459C1010.09 327.126 1008.36 334.459 1005.16 342.459C1001.96 350.459 997.422 358.059 991.556 365.259C992.089 365.792 993.156 366.059 994.756 366.059C1001.16 366.059 1007.29 363.792 1013.16 359.259C1019.02 354.459 1025.29 346.859 1031.96 336.459H1039.16ZM987.956 336.459C988.756 336.459 989.289 336.592 989.556 336.859C994.089 328.326 996.356 321.126 996.356 315.259C996.622 309.126 993.422 306.059 986.756 306.059C982.222 306.059 977.422 307.259 972.356 309.659C967.556 311.792 963.022 314.326 958.756 317.259L933.956 356.059C931.022 360.592 928.622 364.992 926.756 369.259C924.889 373.526 923.556 377.392 922.756 380.859C922.222 384.059 922.222 386.726 922.756 388.859C923.289 390.726 924.489 391.659 926.356 391.659C934.089 391.659 942.356 388.326 951.156 381.659C959.956 374.992 967.956 367.259 975.156 358.459C974.356 353.392 975.289 348.459 977.956 343.659C980.889 338.859 984.222 336.459 987.956 336.459ZM1028.39 392.059C1030.25 392.059 1032.39 391.392 1034.79 390.059C1037.19 388.459 1040.12 385.659 1043.59 381.659C1047.32 377.659 1051.72 372.059 1056.79 364.859C1062.12 357.392 1068.52 347.926 1075.99 336.459H1083.19C1075.72 348.192 1069.32 358.059 1063.99 366.059C1058.92 373.792 1054.25 380.059 1049.99 384.859C1045.72 389.659 1041.72 393.126 1037.99 395.259C1034.52 397.126 1030.65 398.059 1026.39 398.059C1021.85 398.059 1018.39 396.859 1015.99 394.459C1013.32 391.792 1011.59 388.326 1010.79 384.059C1009.99 379.792 1010.25 375.126 1011.59 370.059C1012.92 364.726 1015.32 359.259 1018.79 353.659L1102.39 223.259H1121.19C1107.32 244.859 1094.52 264.726 1082.79 282.859C1077.99 290.592 1073.05 298.459 1067.99 306.459C1063.19 314.192 1058.65 321.392 1054.39 328.059C1050.12 334.726 1046.39 340.592 1043.19 345.659C1039.99 350.459 1037.59 354.059 1035.99 356.459C1033.05 360.992 1030.65 365.392 1028.79 369.659C1026.92 373.926 1025.59 377.792 1024.79 381.259C1024.25 384.459 1024.25 387.126 1024.79 389.259C1025.32 391.126 1026.52 392.059 1028.39 392.059ZM1175.53 336.459C1168.33 347.659 1161.4 357.259 1154.73 365.259C1148.07 372.992 1141.4 379.259 1134.73 384.059C1128.07 388.859 1121.27 392.326 1114.33 394.459C1107.4 396.592 1100.07 397.659 1092.33 397.659C1080.87 397.659 1072.73 395.259 1067.93 390.459C1063.13 385.392 1060.87 379.126 1061.13 371.659C1061.13 364.192 1063.13 356.192 1067.13 347.659C1071.4 339.126 1076.6 331.126 1082.73 323.659C1088.87 316.192 1095.67 310.059 1103.13 305.259C1110.6 300.192 1117.67 297.659 1124.33 297.659C1130.73 297.659 1135.13 299.392 1137.53 302.859C1140.2 306.059 1141.27 310.059 1140.73 314.859C1140.2 319.392 1138.33 324.192 1135.13 329.259C1131.93 334.326 1127.93 338.592 1123.13 342.059C1118.33 345.526 1112.73 347.792 1106.33 348.859C1100.2 349.926 1093.8 348.726 1087.13 345.259C1083.93 350.859 1081.4 356.459 1079.53 362.059C1077.67 367.392 1076.87 372.326 1077.13 376.859C1077.4 381.126 1078.73 384.726 1081.13 387.659C1083.8 390.326 1087.93 391.659 1093.53 391.659C1107.4 391.659 1120.47 386.859 1132.73 377.259C1145.27 367.392 1157.13 353.792 1168.33 336.459H1175.53ZM1131.13 308.859C1124.2 308.859 1116.87 312.059 1109.13 318.459C1101.67 324.859 1095.27 332.326 1089.93 340.859C1095.27 343.259 1100.2 344.192 1104.73 343.659C1109.53 342.859 1113.67 341.259 1117.13 338.859C1120.87 336.459 1124.07 333.526 1126.73 330.059C1129.4 326.592 1131.4 323.392 1132.73 320.459C1134.07 317.259 1134.6 314.592 1134.33 312.459C1134.07 310.059 1133 308.859 1131.13 308.859ZM1435.82 185.659C1438.75 185.126 1441.28 185.926 1443.42 188.059C1445.82 189.926 1447.02 192.459 1447.02 195.659C1441.68 195.659 1435.82 198.192 1429.42 203.259C1423.02 208.059 1417.42 214.326 1412.62 222.059L1334.22 347.659C1332.35 350.592 1329.82 354.726 1326.62 360.059C1323.42 365.126 1319.55 370.726 1315.02 376.859C1310.75 382.726 1305.68 388.859 1299.82 395.259C1294.22 401.392 1287.95 406.992 1281.02 412.059C1274.08 417.126 1266.62 421.259 1258.62 424.459C1250.62 427.659 1242.08 429.259 1233.02 429.259C1216.75 429.259 1204.35 425.259 1195.82 417.259C1187.55 409.259 1182.22 399.259 1179.82 387.259C1177.68 375.259 1178.22 362.326 1181.42 348.459C1184.62 334.592 1189.68 321.659 1196.62 309.659C1203.55 297.659 1212.08 287.659 1222.22 279.659C1232.35 271.659 1243.28 267.659 1255.02 267.659C1265.42 267.659 1273.55 270.192 1279.42 275.259C1285.55 280.326 1289.55 286.726 1291.42 294.459C1293.55 301.926 1293.95 310.059 1292.62 318.859C1291.28 327.659 1288.35 335.926 1283.82 343.659C1279.55 351.126 1273.95 357.392 1267.02 362.459C1260.08 367.526 1252.08 370.059 1243.02 370.059C1236.62 370.059 1231.68 369.126 1228.22 367.259C1224.75 365.392 1222.08 363.392 1220.22 361.259C1218.35 358.859 1217.15 356.059 1216.62 352.859C1227.82 352.859 1237.68 350.992 1246.22 347.259C1254.75 343.259 1261.82 338.326 1267.42 332.459C1273.02 326.592 1277.15 320.326 1279.82 313.659C1282.48 306.726 1283.42 300.326 1282.62 294.459C1282.08 288.592 1279.82 283.792 1275.82 280.059C1272.08 276.059 1266.48 274.059 1259.02 274.059C1250.22 274.059 1241.82 277.392 1233.82 284.059C1225.82 290.726 1218.88 299.126 1213.02 309.259C1207.15 319.126 1202.75 329.926 1199.82 341.659C1196.88 353.392 1195.95 364.326 1197.02 374.459C1198.08 384.326 1201.55 392.592 1207.42 399.259C1213.28 405.926 1222.08 409.259 1233.82 409.259C1250.08 409.259 1265.02 403.392 1278.62 391.659C1292.48 379.926 1305.55 364.326 1317.82 344.859L1368.22 264.059C1377.02 250.192 1384.62 238.326 1391.02 228.459C1397.68 218.592 1403.55 210.459 1408.62 204.059C1413.95 197.659 1418.75 192.992 1423.02 190.059C1427.55 187.126 1431.82 185.659 1435.82 185.659ZM1651.82 96.0589C1655.82 96.8589 1659.42 98.4589 1662.62 100.859C1665.28 102.992 1667.68 106.192 1669.82 110.459C1671.95 114.726 1673.02 120.726 1673.02 128.459C1673.02 133.259 1671.82 139.792 1669.42 148.059C1667.02 156.059 1662.75 164.059 1656.62 172.059C1650.48 180.059 1642.08 186.992 1631.42 192.859C1620.75 198.726 1607.15 201.659 1590.62 201.659C1568.48 201.659 1547.82 199.392 1528.62 194.859C1509.68 190.059 1491.55 184.859 1474.22 179.259C1456.88 173.392 1440.08 168.192 1423.82 163.659C1407.82 158.859 1391.68 156.459 1375.42 156.459C1362.62 156.459 1351.02 158.726 1340.62 163.259C1330.22 167.792 1321.15 173.659 1313.42 180.859C1305.95 187.792 1300.08 195.792 1295.82 204.859C1291.55 213.659 1288.88 222.459 1287.82 231.259C1287.02 240.059 1287.95 248.326 1290.62 256.059C1293.55 263.792 1298.35 270.192 1305.02 275.259C1293.28 273.392 1284.48 268.726 1278.62 261.259C1273.02 253.792 1269.95 245.126 1269.42 235.259C1268.88 225.126 1270.75 214.459 1275.02 203.259C1279.55 192.059 1286.08 181.792 1294.62 172.459C1303.15 163.126 1313.68 155.392 1326.22 149.259C1338.75 143.126 1352.88 140.059 1368.62 140.059C1387.02 140.059 1404.22 142.459 1420.22 147.259C1436.48 152.059 1452.62 157.259 1468.62 162.859C1484.88 168.459 1501.82 173.659 1519.42 178.459C1537.28 183.259 1557.02 185.659 1578.62 185.659C1589.02 185.659 1597.95 184.459 1605.42 182.059C1612.88 179.392 1619.28 175.926 1624.62 171.659C1629.95 167.392 1634.35 162.592 1637.82 157.259C1641.28 151.926 1643.95 146.459 1645.82 140.859C1650.62 127.792 1652.62 112.859 1651.82 96.0589ZM1483.55 336.459C1480.62 340.726 1477.55 345.259 1474.35 350.059C1471.42 354.592 1468.08 358.726 1464.35 362.459C1460.88 365.926 1457.02 368.859 1452.75 371.259C1448.48 373.659 1443.68 374.859 1438.35 374.859C1434.62 374.859 1430.88 374.059 1427.15 372.459C1421.28 379.926 1415.02 386.059 1408.35 390.859C1401.68 395.659 1395.02 398.059 1388.35 398.059C1381.15 398.059 1376.08 395.659 1373.15 390.859C1369.95 385.792 1368.62 379.526 1369.15 372.059C1369.42 364.592 1371.28 356.592 1374.75 348.059C1378.22 339.526 1382.75 331.526 1388.35 324.059C1393.95 316.592 1400.35 310.459 1407.55 305.659C1415.02 300.592 1422.88 298.059 1431.15 298.059C1438.35 298.059 1443.42 300.192 1446.35 304.459C1449.55 308.459 1450.88 313.659 1450.35 320.059C1450.08 326.459 1448.35 333.659 1445.15 341.659C1442.22 349.392 1438.35 356.859 1433.55 364.059C1433.82 365.659 1434.22 366.992 1434.75 368.059C1435.55 369.126 1437.02 369.659 1439.15 369.659C1444.75 369.659 1450.35 367.126 1455.95 362.059C1461.82 356.992 1468.62 348.459 1476.35 336.459H1483.55ZM1421.95 368.059C1420.08 365.659 1419.15 362.859 1419.15 359.659C1419.42 356.192 1420.08 353.126 1421.15 350.459C1422.48 347.526 1424.08 345.126 1425.95 343.259C1428.08 341.126 1430.22 340.059 1432.35 340.059C1434.75 340.059 1436.62 340.592 1437.95 341.659C1441.95 332.859 1444.22 325.126 1444.75 318.459C1445.28 311.792 1442.62 308.459 1436.75 308.459C1432.48 308.459 1427.95 310.592 1423.15 314.859C1418.35 318.859 1413.82 323.926 1409.55 330.059C1405.28 336.192 1401.28 342.992 1397.55 350.459C1394.08 357.659 1391.42 364.326 1389.55 370.459C1387.68 376.592 1386.75 381.792 1386.75 386.059C1387.02 390.059 1388.62 392.059 1391.55 392.059C1396.08 392.059 1401.02 389.792 1406.35 385.259C1411.68 380.726 1416.88 374.992 1421.95 368.059ZM1634.42 336.459C1630.95 341.792 1627.49 345.659 1624.02 348.059C1620.55 350.192 1616.15 351.259 1610.82 351.259C1606.02 351.259 1602.42 350.192 1600.02 348.059C1597.89 345.926 1596.42 343.659 1595.62 341.259C1594.55 338.326 1594.29 334.992 1594.82 331.259C1579.62 354.726 1565.62 371.792 1552.82 382.459C1540.29 392.859 1529.75 398.059 1521.22 398.059C1515.35 398.059 1511.09 395.926 1508.42 391.659C1505.75 387.126 1504.82 381.392 1505.62 374.459C1498.69 382.992 1492.55 389.126 1487.22 392.859C1481.89 396.326 1476.42 398.059 1470.82 398.059C1466.29 398.059 1462.82 396.859 1460.42 394.459C1457.75 391.792 1456.02 388.326 1455.22 384.059C1454.42 379.792 1454.69 375.126 1456.02 370.059C1457.35 364.726 1459.75 359.259 1463.22 353.659L1498.82 297.659H1517.62L1480.42 356.459C1477.49 360.992 1475.09 365.392 1473.22 369.659C1471.35 373.926 1470.02 377.792 1469.22 381.259C1468.69 384.459 1468.69 387.126 1469.22 389.259C1469.75 391.126 1470.95 392.059 1472.82 392.059C1474.69 392.059 1476.82 391.526 1479.22 390.459C1481.89 389.126 1484.95 386.859 1488.42 383.659C1492.15 380.192 1496.42 375.526 1501.22 369.659C1506.29 363.792 1512.02 356.059 1518.42 346.459L1549.62 297.659H1568.02C1563.22 305.392 1558.42 312.859 1553.62 320.059C1549.89 326.192 1545.89 332.726 1541.62 339.659C1537.35 346.326 1533.75 351.926 1530.82 356.459C1524.69 365.792 1520.95 374.059 1519.62 381.259C1518.55 388.459 1519.89 392.059 1523.62 392.059C1525.49 392.059 1528.42 390.992 1532.42 388.859C1536.69 386.459 1541.62 382.726 1547.22 377.659C1553.09 372.326 1559.49 365.659 1566.42 357.659C1573.35 349.392 1580.55 339.526 1588.02 328.059C1587.22 327.259 1586.55 326.326 1586.02 325.259C1585.49 324.192 1584.95 322.992 1584.42 321.659C1584.15 320.059 1584.02 318.192 1584.02 316.059C1584.02 313.926 1584.42 311.659 1585.22 309.259C1586.29 306.592 1587.62 304.192 1589.22 302.059C1591.09 299.926 1593.35 298.192 1596.02 296.859C1598.69 295.259 1601.62 294.459 1604.82 294.459C1608.82 294.459 1611.35 296.592 1612.42 300.859C1610.02 303.259 1607.75 306.992 1605.62 312.059C1603.75 316.859 1602.42 321.792 1601.62 326.859C1601.09 331.659 1601.49 335.926 1602.82 339.659C1604.15 343.392 1607.22 345.259 1612.02 345.259C1614.95 345.259 1617.75 344.459 1620.42 342.859C1623.09 341.259 1625.35 339.126 1627.22 336.459H1634.42ZM1726.9 336.459C1719.7 347.659 1712.77 357.259 1706.1 365.259C1699.43 372.992 1692.77 379.259 1686.1 384.059C1679.43 388.859 1672.63 392.326 1665.7 394.459C1658.77 396.592 1651.43 397.659 1643.7 397.659C1632.23 397.659 1624.1 395.259 1619.3 390.459C1614.5 385.392 1612.23 379.126 1612.5 371.659C1612.5 364.192 1614.5 356.192 1618.5 347.659C1622.77 339.126 1627.97 331.126 1634.1 323.659C1640.23 316.192 1647.03 310.059 1654.5 305.259C1661.97 300.192 1669.03 297.659 1675.7 297.659C1682.1 297.659 1686.5 299.392 1688.9 302.859C1691.57 306.059 1692.63 310.059 1692.1 314.859C1691.57 319.392 1689.7 324.192 1686.5 329.259C1683.3 334.326 1679.3 338.592 1674.5 342.059C1669.7 345.526 1664.1 347.792 1657.7 348.859C1651.57 349.926 1645.17 348.726 1638.5 345.259C1635.3 350.859 1632.77 356.459 1630.9 362.059C1629.03 367.392 1628.23 372.326 1628.5 376.859C1628.77 381.126 1630.1 384.726 1632.5 387.659C1635.17 390.326 1639.3 391.659 1644.9 391.659C1658.77 391.659 1671.83 386.859 1684.1 377.259C1696.63 367.392 1708.5 353.792 1719.7 336.459H1726.9ZM1682.5 308.859C1675.57 308.859 1668.23 312.059 1660.5 318.459C1653.03 324.859 1646.63 332.326 1641.3 340.859C1646.63 343.259 1651.57 344.192 1656.1 343.659C1660.9 342.859 1665.03 341.259 1668.5 338.859C1672.23 336.459 1675.43 333.526 1678.1 330.059C1680.77 326.592 1682.77 323.392 1684.1 320.459C1685.43 317.259 1685.97 314.592 1685.7 312.459C1685.43 310.059 1684.37 308.859 1682.5 308.859ZM1800.79 336.459C1795.19 345.259 1789.85 353.526 1784.79 361.259C1779.72 368.726 1774.79 375.259 1769.99 380.859C1765.19 386.192 1760.39 390.459 1755.59 393.659C1750.79 396.592 1745.72 398.059 1740.39 398.059C1736.39 398.059 1733.05 397.126 1730.39 395.259C1727.72 393.392 1725.72 390.992 1724.39 388.059C1723.32 385.126 1723.05 381.926 1723.59 378.459C1724.12 374.726 1725.59 370.992 1727.99 367.259C1730.39 363.526 1732.52 360.192 1734.39 357.259C1736.25 354.326 1738.12 351.526 1739.99 348.859C1741.85 345.926 1743.59 342.992 1745.19 340.059C1747.05 337.126 1749.19 333.926 1751.59 330.459C1754.25 326.192 1757.32 321.659 1760.79 316.859C1764.52 312.059 1768.25 308.192 1771.99 305.259C1767.99 305.792 1763.72 306.192 1759.19 306.459C1754.92 306.726 1751.19 305.792 1747.99 303.659L1726.79 336.459H1719.59L1746.79 293.659C1753.19 296.592 1759.45 298.059 1765.59 298.059C1769.32 298.059 1772.79 297.792 1775.99 297.259C1779.45 296.459 1782.79 295.392 1785.99 294.059L1789.59 300.459L1750.39 361.259C1744.52 370.326 1740.79 377.792 1739.19 383.659C1737.85 389.259 1738.92 392.059 1742.39 392.059C1745.59 392.059 1749.19 390.592 1753.19 387.659C1757.19 384.726 1761.32 380.726 1765.59 375.659C1770.12 370.592 1774.65 364.726 1779.19 358.059C1783.99 351.126 1788.79 343.926 1793.59 336.459H1800.79ZM1872.91 336.459C1860.91 355.392 1848.51 370.459 1835.71 381.659C1823.17 392.592 1808.37 398.059 1791.31 398.059C1783.84 398.059 1778.51 397.126 1775.31 395.259C1771.84 393.126 1769.44 390.726 1768.11 388.059C1766.77 385.392 1766.37 382.192 1766.91 378.459C1768.24 379.526 1769.84 380.459 1771.71 381.259C1773.31 381.792 1775.44 382.459 1778.11 383.259C1780.51 383.792 1783.57 384.059 1787.31 384.059C1792.64 384.059 1797.17 382.992 1800.91 380.859C1804.91 378.726 1807.97 376.059 1810.11 372.859C1812.24 369.659 1813.57 366.059 1814.11 362.059C1814.91 358.059 1814.91 354.059 1814.11 350.059C1811.71 340.459 1810.51 330.726 1810.51 320.859L1800.91 336.459H1793.71C1796.37 332.192 1798.91 328.192 1801.31 324.459C1803.44 321.259 1805.44 318.059 1807.31 314.859C1809.44 311.392 1811.17 308.726 1812.51 306.859C1814.91 303.126 1817.71 299.659 1820.91 296.459C1824.37 293.259 1827.57 291.659 1830.51 291.659C1833.97 291.659 1837.04 292.992 1839.71 295.659C1836.51 297.526 1833.71 300.726 1831.31 305.259C1828.91 309.792 1828.64 317.526 1830.51 328.459C1831.57 333.792 1832.51 338.592 1833.31 342.859C1834.11 346.859 1834.64 350.592 1834.91 354.059C1835.17 357.259 1835.04 360.326 1834.51 363.259C1833.97 366.192 1832.64 369.259 1830.51 372.459C1834.24 370.326 1838.11 367.526 1842.11 364.059C1845.57 361.126 1849.31 357.392 1853.31 352.859C1857.57 348.326 1861.71 342.859 1865.71 336.459H1872.91Z" fill="white"/>
</svg>
